REM DIRINDEX 1\2,1\3,1\4,1\5
REM DIRNAME cjc004,folder01,folder02,folder03,folder04
TITLE ""
FILE "1Q_t_1629-1638.mp3" MP3
  TRACK 01 AUDIO
    TITLE "3:cjc004_5794"
    INDEX 01 00:00:00
  TRACK 02 AUDIO
    TITLE "0:"
    INDEX 01 00:01:01
  TRACK 03 AUDIO
    TITLE "4:cjc004_5795"
    INDEX 01 00:01:30
  TRACK 04 AUDIO
    TITLE "0:"
    INDEX 01 00:02:40
  TRACK 05 AUDIO
    TITLE "5:cjc004_5796"
    INDEX 01 00:02:65
  TRACK 06 AUDIO
    TITLE "0:"
    INDEX 01 00:07:31
  TRACK 07 AUDIO
    TITLE "3:cjc004_5797"
    INDEX 01 00:08:15
  TRACK 08 AUDIO
    TITLE "0:"
    INDEX 01 00:09:14
  TRACK 09 AUDIO
    TITLE "4:cjc004_5798"
    INDEX 01 00:09:44
  TRACK 10 AUDIO
    TITLE "0:"
    INDEX 01 00:10:55
  TRACK 11 AUDIO
    TITLE "5:cjc004_5799"
    INDEX 01 00:11:03
  TRACK 12 AUDIO
    TITLE "0:"
    INDEX 01 00:15:52
  TRACK 13 AUDIO
    TITLE "3:cjc004_5800"
    INDEX 01 00:16:32
  TRACK 14 AUDIO
    TITLE "0:"
    INDEX 01 00:17:37
  TRACK 15 AUDIO
    TITLE "4:cjc004_5801"
    INDEX 01 00:17:63
  TRACK 16 AUDIO
    TITLE "0:"
    INDEX 01 00:18:64
  TRACK 17 AUDIO
    TITLE "5:cjc004_5802"
    INDEX 01 00:19:18
  TRACK 18 AUDIO
    TITLE "0:"
    INDEX 01 00:23:46
  TRACK 19 AUDIO
    TITLE "3:cjc004_5803"
    INDEX 01 00:24:24
  TRACK 20 AUDIO
    TITLE "0:"
    INDEX 01 00:25:25
  TRACK 21 AUDIO
    TITLE "4:cjc004_5804"
    INDEX 01 00:25:52
  TRACK 22 AUDIO
    TITLE "0:"
    INDEX 01 00:26:62
  TRACK 23 AUDIO
    TITLE "5:cjc004_5805"
    INDEX 01 00:27:12
  TRACK 24 AUDIO
    TITLE "0:"
    INDEX 01 00:31:37
  TRACK 25 AUDIO
    TITLE "3:cjc004_5806"
    INDEX 01 00:32:17
  TRACK 26 AUDIO
    TITLE "0:"
    INDEX 01 00:33:28
  TRACK 27 AUDIO
    TITLE "4:cjc004_5807"
    INDEX 01 00:33:54
  TRACK 28 AUDIO
    TITLE "0:"
    INDEX 01 00:35:10
  TRACK 29 AUDIO
    TITLE "5:cjc004_5808"
    INDEX 01 00:35:39
  TRACK 30 AUDIO
    TITLE "0:"
    INDEX 01 00:40:50
  TRACK 31 AUDIO
    TITLE "3:cjc004_5809"
    INDEX 01 00:41:26
  TRACK 32 AUDIO
    TITLE "0:"
    INDEX 01 00:42:43
  TRACK 33 AUDIO
    TITLE "4:cjc004_5810"
    INDEX 01 00:42:72
  TRACK 34 AUDIO
    TITLE "0:"
    INDEX 01 00:43:70
  TRACK 35 AUDIO
    TITLE "5:cjc004_5811"
    INDEX 01 00:44:18
  TRACK 36 AUDIO
    TITLE "0:"
    INDEX 01 00:48:28
  TRACK 37 AUDIO
    TITLE "3:cjc004_5812"
    INDEX 01 00:49:06
  TRACK 38 AUDIO
    TITLE "0:"
    INDEX 01 00:50:23
  TRACK 39 AUDIO
    TITLE "4:cjc004_5813"
    INDEX 01 00:50:52
  TRACK 40 AUDIO
    TITLE "0:"
    INDEX 01 00:51:38
  TRACK 41 AUDIO
    TITLE "5:cjc004_5814"
    INDEX 01 00:51:65
  TRACK 42 AUDIO
    TITLE "0:"
    INDEX 01 00:55:71
  TRACK 43 AUDIO
    TITLE "3:cjc004_5815"
    INDEX 01 00:56:51
  TRACK 44 AUDIO
    TITLE "0:"
    INDEX 01 00:57:64
  TRACK 45 AUDIO
    TITLE "4:cjc004_5816"
    INDEX 01 00:58:18
  TRACK 46 AUDIO
    TITLE "0:"
    INDEX 01 00:59:73
  TRACK 47 AUDIO
    TITLE "5:cjc004_5817"
    INDEX 01 01:00:21
  TRACK 48 AUDIO
    TITLE "0:"
    INDEX 01 01:04:64
  TRACK 49 AUDIO
    TITLE "3:cjc004_5818"
    INDEX 01 01:05:48
  TRACK 50 AUDIO
    TITLE "0:"
    INDEX 01 01:06:55
  TRACK 51 AUDIO
    TITLE "4:cjc004_5819"
    INDEX 01 01:07:12
  TRACK 52 AUDIO
    TITLE "0:"
    INDEX 01 01:08:25
  TRACK 53 AUDIO
    TITLE "5:cjc004_5820"
    INDEX 01 01:08:50
  TRACK 54 AUDIO
    TITLE "0:"
    INDEX 01 01:13:34
  TRACK 55 AUDIO
    TITLE "3:cjc004_5821"
    INDEX 01 01:14:16
  TRACK 56 AUDIO
    TITLE "0:"
    INDEX 01 01:15:50
  TRACK 57 AUDIO
    TITLE "4:cjc004_5822"
    INDEX 01 01:16:01
  TRACK 58 AUDIO
    TITLE "0:"
    INDEX 01 01:17:04
  TRACK 59 AUDIO
    TITLE "5:cjc004_5823"
    INDEX 01 01:17:24
  TRACK 60 AUDIO
    TITLE "0:"
    INDEX 01 01:21:47
